<?xml version="1.0" encoding="utf-8"?>
<!-- Generator: Adobe Illustrator 24.1.2, SVG Export Plug-In . SVG Version: 6.00 Build 0)  -->
<svg version="1.1" id="Layer_1" xmlns="http://www.w3.org/2000/svg" xmlns:xlink="http://www.w3.org/1999/xlink" x="0px" y="0px"
	 width="1398.7px" height="320.4px" viewBox="0 0 1398.7 320.4" style="enable-background:new 0 0 1398.7 320.4;"
	 xml:space="preserve">
<style type="text/css">
	.st0{fill:#FFFFFF;}
	.st1{clip-path:url(#SVGID_2_);fill:#B37E2C;}
	.st2{clip-path:url(#SVGID_2_);fill:#2F868F;}
	.st3{clip-path:url(#SVGID_2_);fill:#6CCCDD;}
	.st4{clip-path:url(#SVGID_2_);fill:#F2ED69;}
	.st5{clip-path:url(#SVGID_2_);fill:#D0DF5B;}
	.st6{clip-path:url(#SVGID_2_);fill:#BB66A9;}
	.st7{clip-path:url(#SVGID_2_);fill:#FCB344;}
	.st8{clip-path:url(#SVGID_2_);fill:#FDB946;}
	.st9{clip-path:url(#SVGID_2_);fill:#7BD0E4;}
	.st10{clip-path:url(#SVGID_2_);fill:#42B6C0;}
	.st11{clip-path:url(#SVGID_2_);fill:#DD9C36;}
	.st12{clip-path:url(#SVGID_2_);fill:#C2D950;}
	.st13{clip-path:url(#SVGID_2_);fill:#AEC643;}
	.st14{clip-path:url(#SVGID_2_);fill:#AB529F;}
	.st15{clip-path:url(#SVGID_2_);fill:#C675B0;}
</style>
<path class="st0" d="M428.2,260.5H401c-4.5,0-6.7-2.2-6.7-6.7V61.5c0-4.5,2.2-6.7,6.7-6.7h27.2c4.5,0,6.7,2.2,6.7,6.7v91.2h0.6
	c1.7-5.1,5-11.7,9.9-19.8l48.6-71.3c2.8-4.5,6.9-6.7,12.5-6.7H538c2.3,0,3.8,0.7,4.3,2.1c0.5,1.4-0.1,3.2-1.8,5.3l-60.8,84.1
	l67.8,106.2c1.5,2.6,1.8,4.5,0.8,5.9c-1,1.4-2.9,2.1-5.9,2.1h-23.4c-7.5,0-12.5-2.2-15-6.7l-48.9-78.4l-20.2,23.7v54.7
	C434.9,258.3,432.7,260.5,428.2,260.5z"/>
<path class="st0" d="M714.2,260.5h-30.7c-3.8,0-5.1-2.2-3.8-6.7l50.5-192.3c1.5-4.5,4.7-6.7,9.6-6.7h42.6c5.3,0,8.5,2.2,9.6,6.7
	l50.5,192.3c1.3,4.5,0,6.7-3.8,6.7h-30.7c-2.3,0-3.9-0.5-4.8-1.4c-0.9-1-1.5-2.7-1.9-5.3l-9-35.2h-62.4l-9,35.2
	c-0.4,2.6-1.1,4.3-2.1,5.3C717.9,260,716.3,260.5,714.2,260.5z M760.6,93.5l-23,92.5h47.3l-23-92.5H760.6z"/>
<path class="st0" d="M973.5,208v-6.4c0-4.5,2.2-6.7,6.7-6.7h27.2c4.5,0,6.7,2.2,6.7,6.7v2.6c0,8.1,1.6,13.7,4.8,16.6
	c3.2,3,9.1,4.5,17.6,4.5h15c8.3,0,14.1-1.6,17.4-4.8c3.3-3.2,5-9.2,5-17.9v-3.8c0-6.2-2.5-10.9-7.5-14.2c-5-3.3-11.3-5.3-18.7-5.9
	c-7.5-0.6-15.5-1.9-24.2-3.7c-8.6-1.8-16.7-4.2-24.2-7c-7.5-2.9-13.7-8.5-18.7-17c-5-8.4-7.5-19.2-7.5-32.5v-11.2
	c0-16.6,4.7-29.5,14.1-38.7c9.4-9.2,22.4-13.7,39-13.7h32c16.8,0,30,4.6,39.4,13.7c9.4,9.2,14.1,22.1,14.1,38.7v6.1
	c0,4.5-2.2,6.7-6.7,6.7h-27.2c-4.5,0-6.7-2.2-6.7-6.7v-1.9c0-8.3-1.6-14-4.8-17c-3.2-3-9.1-4.5-17.6-4.5h-12.5
	c-8.7,0-14.7,1.7-17.8,5c-3.1,3.3-4.6,9.8-4.6,19.4v6.1c0,10,8.7,15.8,26.2,17.3c18.1,1.5,34.2,5.1,48.3,10.9
	c7.5,3.2,13.7,8.9,18.7,17.1c5,8.2,7.5,18.7,7.5,31.5V208c0,16.6-4.7,29.5-14.1,38.7c-9.4,9.2-22.4,13.8-39,13.8h-34.9
	c-16.6,0-29.7-4.6-39-13.8C978.2,237.6,973.5,224.7,973.5,208z"/>
<path class="st0" d="M1329.6,260.5h-26.9c-4.7,0-7-2.2-7-6.7V93.5c0-2.3-1.2-3.5-3.5-3.5h-36.5c-4.5,0-6.7-2.2-6.7-6.7V61.5
	c0-4.5,2.2-6.7,6.7-6.7h120.9c4.5,0,6.7,2.2,6.7,6.7v21.8c0,4.5-2.2,6.7-6.7,6.7h-36.5c-2.6,0-3.8,1.2-3.8,3.5v160.3
	C1336.3,258.3,1334,260.5,1329.6,260.5z"/>
<g id="_x31_-full-logo_3_">
	<g>
		<defs>
			<rect id="SVGID_1_" x="6.3" y="8.2" width="240" height="299.2"/>
		</defs>
		<clipPath id="SVGID_2_">
			<use xlink:href="#SVGID_1_"  style="overflow:visible;"/>
		</clipPath>
		<polygon class="st1" points="6.3,101.5 33.5,180.7 33.5,101.5 		"/>
		<polygon class="st2" points="33.5,8.2 6.3,101.5 33.5,101.5 		"/>
		<polygon class="st3" points="33.5,8.2 33.5,101.5 99.5,101.5 		"/>
		<polygon class="st4" points="126.3,141.8 33.5,180.7 99.5,101.5 		"/>
		<polygon class="st5" points="33.5,180.7 59.5,221.1 126.3,141.8 		"/>
		<polygon class="st6" points="59.5,221.1 126.3,307.4 126.3,141.8 		"/>
		<polygon class="st7" points="33.5,180.7 99.5,101.5 33.5,101.5 		"/>
		<polygon class="st8" points="219.1,101.5 219.1,180.7 246.3,101.5 		"/>
		<polygon class="st9" points="219.1,8.2 219.1,101.5 246.3,101.5 		"/>
		<polygon class="st10" points="219.1,8.2 153,101.5 219.1,101.5 		"/>
		<polygon class="st11" points="219.1,180.7 153,101.5 219.1,101.5 		"/>
		<polygon class="st12" points="126.3,141.8 219.1,180.7 153,101.5 		"/>
		<polygon class="st13" points="219.1,180.7 193,221.1 126.3,141.8 		"/>
		<polygon class="st14" points="126.3,307.4 193,221.1 126.3,141.8 		"/>
		<polygon class="st15" points="99.5,101.5 126.3,141.8 153,101.5 		"/>
	</g>
</g>
</svg>
